<?xml version="1.0" encoding="utf-8"?>
<!-- Generator: Adobe Illustrator 19.2.1, SVG Export Plug-In . SVG Version: 6.00 Build 0)  -->
<svg version="1.1" id="layer" xmlns="http://www.w3.org/2000/svg" xmlns:xlink="http://www.w3.org/1999/xlink" x="0px" y="0px"
	 viewBox="0 0 652 652" style="enable-background:new 0 0 652 652;" xml:space="preserve">
<style type="text/css">
	.st0{fill:#1A3050;}
	.st1{fill:#FECB00;}
</style>
<g>
	<g>
		<g>
			<g>
				<path class="st0" d="M21.7,306.7c0,0.3,0,0.3,0,0.3c0,0.3,2.1,23.6,2.7,37.1c0.3,1.5,0.3,3,0.3,4.8c0.6,12.9,1.2,29,11.7,40.6
					c9.9,11.1,19.8,15.8,33.1,16.1c0.6,0,0.6,0,0.6,0l0,0c13.2-0.3,23.1-5.1,33.1-16.1c10.5-11.7,11.1-27.8,11.7-40.6
					c0-1.8,0-3.3,0.3-4.8c0.6-13.4,2.7-36.8,2.7-37.1c0-0.3,0-0.3,0-0.3H21.7z"/>
				<path class="st1" d="M32.6,279.5c1.2,0,1.2,0,1.2,0c1.5-5.1,8.7-17.6,24.6-21.5c0,0-9,6.3-12.3,15.2c0.9-0.3,1.5-0.3,2.4-0.3
					c2.7,0,3.9,1.2,4.8,2.1c4.2-14,13.5-17,13.5-17s-1.5,8.1-1.5,15.5c1.2-0.9,2.7-1.5,4.5-1.5c1.8,0,3.3,0.6,4.2,1.5
					c0.3-7.5-1.5-15.5-1.5-15.5s9.6,3,13.5,17c1.2-1.2,2.7-2.1,5.4-2.1c0.6,0,1.2,0,1.8,0C90,264.3,80.9,258,80.9,258
					c15.9,3.9,23.1,16.4,25,21.5c1.2,0,1.2,0,1.2,0c-0.3-3.9,3.6-6,4.5-6.3c-2.1-4.8-10.8-19.1-38.5-20.3c0,0,0.9-1.5,1.2-3.3
					c0-1.8-1.2-3.9-3.6-4.2c0-3.9,0-3.9,0-3.9c3,0,3,0,3,0c0-1.8,0-1.8,0-1.8c-3,0-3,0-3,0c0-3.6,0-3.6,0-3.6c-2.1,0-2.1,0-2.1,0
					c0,3.6,0,3.6,0,3.6c-3,0-3,0-3,0c0,1.8,0,1.8,0,1.8c3,0,3,0,3,0c0,3.9,0,3.9,0,3.9c-2.4,0.3-3.6,2.4-3.3,4.2
					c0,1.8,0.9,3.3,0.9,3.3c-27.7,1.2-36.4,15.5-38.5,20.3c1.5,0.3,2.4,1.2,3.3,2.1C32.2,276.6,32.9,277.7,32.6,279.5z"/>
				<path class="st1" d="M26.8,306.7c85.7,0,85.7,0,85.7,0c0-0.3,0.3-2.1,0.6-5.4c-86.9,0-86.9,0-86.9,0
					C26.8,304.6,26.8,306.4,26.8,306.7z"/>
				<path class="st1" d="M111.3,275.3c-3.9,2.4-2.4,6-2.4,6s-2.7-0.3-4.2,0.9c-0.9,0.9-1.2,1.8-1.5,3.3c0,1.5,0.6,3,1.5,3.9
					c0.9,0.9,2.1,1.2,3,1.2c-0.3,0.9-1.5,3.6-5.7,3.6l0,0c-4.2,0-5.7-2.7-6-3.9c1.2,0,4.5-0.9,4.8-4.5c0-1.5-0.3-2.4-1.2-3.3
					c-1.2-1.2-3-1.5-4.2-1.5c0.3-0.9,0.6-2.7,0-3.9c0-0.3-0.9-2.4-3.9-2.4c-3.6,0-4.8,2.4-4.8,3.3c-0.3,1.2,0,2.4,0,3.3
					c-0.9,0-2.7,0.3-3.9,1.5c-0.6,0.9-0.9,1.8-0.9,3.3c0,1.2,0.6,2.1,1.2,3c1.5,0.9,3.3,1.2,4.2,1.2c0,0.6-0.3,1.5-1.2,2.4
					c-1.2,0.9-3,1.5-5.1,1.5c-5.1-0.3-6.3-3-6.6-4.2c0.9,0,2.4,0,3.6-0.9c0.9-0.6,1.2-1.8,1.2-3.3c0-1.5-0.3-2.4-1.2-3
					c-1.2-1.2-3-1.5-3.9-1.5c0.3-1.2,1.2-3.3,0-4.8c0-0.3-0.9-2.4-4.2-2.4c-3,0-4.2,1.8-4.8,3c-0.6,1.5,0,3.3,0.3,4.2
					c-0.9,0-2.7,0.3-3.9,1.5c-0.9,0.6-1.2,1.5-1.2,3c0,1.5,0.6,2.7,1.5,3.3c0.9,0.9,2.4,0.9,3.3,0.9c-0.3,1.2-1.5,4.2-6.6,4.2
					c-4.8,0-6-3.3-6.3-3.9c0.9,0,3-0.3,4.2-1.2c0.9-0.9,1.2-1.8,1.5-3c0-1.5-0.3-2.4-1.2-3.3c-1.2-1.2-3-1.5-3.9-1.5
					c0.3-0.6,0.3-1.8,0.3-2.7c0-0.6-0.3-1.5-0.9-2.4c-0.9-0.9-2.1-1.5-3.6-1.5c-1.5,0-2.7,0.3-3.3,0.9c-0.9,0.9-1.2,2.1-1.5,2.7
					c0,0.9,0,2.1,0.3,2.7c-0.9,0-3,0.3-4.2,1.5c-0.9,0.9-1.2,1.8-1.2,3.3c0.3,3.6,3.6,4.5,4.8,4.5c-0.3,1.2-1.8,3.9-5.7,3.9l0,0
					c-4.2,0-5.4-2.7-6-3.6c0.9,0,2.1-0.3,3-1.2c0.9-0.9,1.5-2.4,1.5-3.9c0-0.6,0-0.9-0.3-1.5c-0.9-3.6-5.4-2.7-5.4-2.7
					s0.9-2.7-0.6-4.5c-3.3-4.5-9.3-2.4-9.3-2.4c0.3,0.3,0.3,0.3,0.3,0.3c2.7,8.4,4.5,17.9,5.1,24.2c87.5,0,87.5,0,87.5,0
					c0.9-6.3,2.4-15.8,5.4-24.2c0-0.3,0-0.3,0-0.3S114.9,273,111.3,275.3z"/>
				<path class="st1" d="M49.7,324.7c-4.5,0-2.4,5.4-2.4,5.4c-1.8-0.6-3.6,0.9-3.6,2.7c0.3,3.6,3.9,3.3,3.9,3.3s-0.9,3.3-4.8,3.3
					c-3.3-0.3-4.2-3-4.2-3s3,0,3-3.6c0-3.9-3.9-3-3.9-3c0.9-5.1-4.8-4.5-4.8-4.5s2.1,6.6,2.7,11.1c0.9,3.6,1.5,12,1.5,12
					c12.9,0,12.9,0,12.9,0c11.7,0,11.7,0,11.7,0s1.2-8.4,2.1-12c0.9-4.5,2.7-11.1,2.7-11.1s-6-0.6-4.8,4.5c0,0-3.6-0.9-3.6,3
					c-0.3,3.6,3,3.6,3,3.6s-1.2,2.7-4.2,3c-3.9,0-4.8-3.3-4.8-3.3s3.6,0.3,3.6-3.3c0-1.8-1.8-3.3-3.3-2.7
					C52.4,330,54.2,324.7,49.7,324.7z"/>
				<path class="st1" d="M89.7,324.7c-4.5,0-2.4,5.4-2.4,5.4c-1.8-0.6-3.6,0.9-3.6,2.7c0.3,3.6,3.9,3.3,3.9,3.3s-0.9,3.3-4.8,3.3
					c-3.3-0.3-4.2-3-4.2-3s3,0,3-3.6c-0.3-3.9-3.9-3-3.9-3c0.9-5.1-4.8-4.5-4.8-4.5s1.8,6.6,2.7,11.1c0.9,3.6,1.5,12,1.5,12
					c12.9,0,12.9,0,12.9,0c11.7,0,11.7,0,11.7,0s1.2-8.4,2.1-12c0.9-4.5,2.7-11.1,2.7-11.1s-6-0.6-4.8,4.5c0,0-3.6-0.9-3.6,3
					c-0.3,3.6,2.7,3.6,2.7,3.6s-0.9,2.7-4.2,3c-3.6,0-4.5-3.3-4.5-3.3s3.6,0.3,3.6-3.3c0-1.8-1.8-3.3-3.6-2.7
					C92.1,330,94.2,324.7,89.7,324.7z"/>
				<path class="st1" d="M69.8,357.5c-4.8,0-2.7,5.7-2.7,5.7c-1.8-0.6-3.9,0.9-3.9,2.7c0.3,3.9,4.2,3.6,4.2,3.6s-1.2,3.6-5.1,3.6
					c-3.6-0.3-4.5-3.3-4.5-3.3s3,0.3,3-3.9c0-3.9-4.2-3-4.2-3c1.2-5.4-4.8-5.1-4.8-5.1s1.8,7.5,3,12c0.6,3.9,1.2,12.3,1.2,12.3
					c13.8,0,13.8,0,13.8,0c12.9,0,12.9,0,12.9,0s1.2-8.4,2.1-12.3c0.9-4.5,3-12,3-12s-6.6-0.3-5.1,5.1c0,0-4.2-0.9-4.2,3
					c0,4.2,3.3,3.9,3.3,3.9s-1.2,3-4.5,3.3c-4.2,0-5.1-3.6-5.1-3.6s3.9,0.3,3.9-3.6c0-1.8-2.1-3.3-3.6-2.7
					C72.5,363.2,74.6,357.5,69.8,357.5z"/>
				<path d="M168.7,325.6c4.2,0,6.6-2.4,6.6-6c0-3.6-2.4-6-6.6-6c-6.6,0-6.6,0-6.6,0c0,12,0,12,0,12H168.7z M166.3,332.7
					c-4.2,0-4.2,0-4.2,0c0,16.1,0,16.1,0,16.1c-8.4,0-8.4,0-8.4,0c0-42.1,0-42.1,0-42.1c16.5,0,16.5,0,16.5,0
					c8.4,0,13.5,5.7,13.5,12.9c0,6-3.3,10.5-9,12c9.3,17.3,9.3,17.3,9.3,17.3c-9.3,0-9.3,0-9.3,0L166.3,332.7z"/>
				<path d="M207.8,330.9c0-3-1.8-6-6.6-6c-3.9,0-6.3,3.3-6.6,6H207.8z M215.3,340.5c-1.5,5.1-6,9.3-13.5,9.3c-8.1,0-15-5.7-15-15.5
					c0-9.6,6.9-15.5,14.4-15.5c9,0,14.7,5.7,14.7,15.2c0,1.2-0.3,2.4-0.3,2.4c-21,0-21,0-21,0c0,3.9,3.3,6.6,7.5,6.6
					c3.6,0,5.7-1.8,6.6-4.5L215.3,340.5z"/>
				<path d="M241.5,333.3c0-4.5-3.3-7.5-7.2-7.5c-3.9,0-6.9,3-6.9,7.5c0,4.5,3,7.5,6.9,7.5C238.5,340.8,241.5,337.8,241.5,333.3z
					 M226.4,348.6c0.6,3.3,3,5.7,6.9,5.7c5.1,0,7.8-2.7,7.8-8.4c0-2.1,0-2.1,0-2.1c-1.2,2.1-3.9,3.9-8.1,3.9
					c-7.8,0-13.8-6-13.8-14.3c0-7.8,5.7-14.3,13.8-14.3c4.5,0,7.2,2.1,8.4,3.9c0-3.3,0-3.3,0-3.3c7.5,0,7.5,0,7.5,0
					c0,26.3,0,26.3,0,26.3c0,8.1-4.2,15.2-15.3,15.2c-8.1,0-13.5-5.1-14.4-10.5L226.4,348.6z"/>
				<path d="M274.5,330.9c0-3-1.8-6-6.6-6c-3.9,0-6.3,3.3-6.6,6H274.5z M282,340.5c-1.5,5.1-6,9.3-13.5,9.3c-8.1,0-15-5.7-15-15.5
					c0-9.6,6.9-15.5,14.4-15.5c9,0,14.7,5.7,14.7,15.2c0,1.2-0.3,2.4-0.3,2.4c-21,0-21,0-21,0c0,3.9,3.3,6.6,7.5,6.6
					c3.6,0,5.7-1.8,6.6-4.5L282,340.5z"/>
				<path d="M305.5,327.4c-0.9,0-1.5-0.3-2.4-0.3c-3.9,0-7.5,2.1-7.5,8.4c0,13.4,0,13.4,0,13.4c-8.1,0-8.1,0-8.1,0
					c0-29.3,0-29.3,0-29.3c7.8,0,7.8,0,7.8,0c0,4.2,0,4.2,0,4.2c1.8-3.9,6-4.5,8.4-4.5c0.6,0,1.2,0,1.8,0V327.4z"/>
				<path d="M310.6,348.9c0-29.3,0-29.3,0-29.3c8.1,0,8.1,0,8.1,0c0,29.3,0,29.3,0,29.3H310.6z M314.8,304.9c2.7,0,4.8,2.4,4.8,5.1
					c0,2.7-2.1,4.8-4.8,4.8c-2.7,0-5.1-2.1-5.1-4.8C309.7,307.3,312.1,304.9,314.8,304.9z"/>
				<path d="M333.5,348.9c-8.1,0-8.1,0-8.1,0c0-29.3,0-29.3,0-29.3c7.8,0,7.8,0,7.8,0c0,3.6,0,3.6,0,3.6c1.8-3,5.4-4.5,8.7-4.5
					c7.2,0,10.5,5.4,10.5,11.7c0,18.5,0,18.5,0,18.5c-7.8,0-7.8,0-7.8,0c0-17,0-17,0-17c0-3.3-1.8-6-5.7-6c-3.3,0-5.4,2.7-5.4,6.3
					V348.9z"/>
				<path d="M379.4,333.3c0-4.5-3.3-7.5-7.2-7.5c-3.9,0-6.9,3-6.9,7.5c0,4.5,3,7.5,6.9,7.5C376.4,340.8,379.4,337.8,379.4,333.3z
					 M364.4,348.6c0.6,3.3,3,5.7,6.9,5.7c5.1,0,7.8-2.7,7.8-8.4c0-2.1,0-2.1,0-2.1c-1.2,2.1-3.9,3.9-8.1,3.9
					c-7.8,0-13.8-6-13.8-14.3c0-7.8,5.7-14.3,13.8-14.3c4.5,0,7.2,2.1,8.4,3.9c0-3.3,0-3.3,0-3.3c7.5,0,7.5,0,7.5,0
					c0,26.3,0,26.3,0,26.3c0,8.1-4.2,15.2-15.3,15.2c-8.1,0-13.5-5.1-14.4-10.5L364.4,348.6z"/>
				<path d="M398.4,339.3c0,2.4,1.8,4.5,5.4,4.5c2.4,0,3.6-1.5,3.6-3c0-1.2-0.9-2.4-3-3c-3.9-0.9-3.9-0.9-3.9-0.9
					c-5.7-1.2-8.4-4.5-8.4-8.7c0-5.4,4.8-9.6,11.1-9.6c8.4,0,11.1,5.4,11.7,8.4c-6.9,1.5-6.9,1.5-6.9,1.5c0-1.8-1.5-3.9-4.8-3.9
					c-2.1,0-3.6,1.2-3.6,3c0,1.5,0.9,2.4,2.7,2.7c4.2,0.9,4.2,0.9,4.2,0.9c5.7,1.2,8.7,4.5,8.7,9c0,4.8-3.9,9.6-11.4,9.6
					c-9,0-12-5.7-12.3-9L398.4,339.3z"/>
				<polygon points="436.9,331.8 448.9,348.9 439.3,348.9 431.4,337.8 428.1,341.1 428.1,348.9 420,348.9 420,305.8 428.1,305.8 
					428.1,330.3 438.4,319.6 448.6,319.6 				"/>
				<path d="M468.7,336.9c0-1.2,0-1.2,0-1.2c-6.6,0.9-6.6,0.9-6.6,0.9c-2.1,0.3-3.6,1.5-3.6,3.9c0,1.8,1.2,3.3,3.9,3.3
					C465.7,343.8,468.7,342.3,468.7,336.9z M459.4,332.1c7.2-1.2,7.2-1.2,7.2-1.2c1.8-0.3,2.1-1.2,2.1-2.1c0-2.1-1.5-3.9-4.8-3.9
					c-3.6,0-5.4,2.4-5.7,4.8c-7.2-1.5-7.2-1.5-7.2-1.5c0.6-4.5,4.8-9.6,12.9-9.6c9.3,0,12.6,5.1,12.6,11.1c0,14.6,0,14.6,0,14.6
					c0,1.5,0.3,3.6,0.6,4.5c-7.5,0-7.5,0-7.5,0c0-0.6-0.3-2.4-0.3-3.6c-1.5,2.4-4.2,4.5-8.7,4.5c-6.3,0-10.2-4.2-10.2-9
					C450.4,335.7,454.3,332.7,459.4,332.1z"/>
				<path d="M490.4,348.9c-7.8,0-7.8,0-7.8,0c0-29.3,0-29.3,0-29.3c7.5,0,7.5,0,7.5,0c0,3.6,0,3.6,0,3.6c1.8-3,5.4-4.5,8.7-4.5
					c7.2,0,10.5,5.4,10.5,11.7c0,18.5,0,18.5,0,18.5c-7.8,0-7.8,0-7.8,0c0-17,0-17,0-17c0-3.3-1.8-6-5.4-6c-3.6,0-5.7,2.7-5.7,6.3
					V348.9z"/>
				<path d="M520.4,339.3c0.3,2.4,1.8,4.5,5.4,4.5c2.7,0,3.9-1.5,3.9-3c0-1.2-0.9-2.4-3.3-3c-3.9-0.9-3.9-0.9-3.9-0.9
					c-5.7-1.2-8.1-4.5-8.1-8.7c0-5.4,4.5-9.6,11.1-9.6c8.1,0,11.1,5.4,11.4,8.4c-6.6,1.5-6.6,1.5-6.6,1.5c-0.3-1.8-1.5-3.9-4.8-3.9
					c-2.1,0-3.9,1.2-3.9,3c0,1.5,1.2,2.4,2.7,2.7c4.2,0.9,4.2,0.9,4.2,0.9c5.7,1.2,8.7,4.5,8.7,9c0,4.8-3.6,9.6-11.4,9.6
					c-8.7,0-12-5.7-12.3-9L520.4,339.3z"/>
				<rect x="542.4" y="305.8" width="8.1" height="43"/>
				<path d="M556.8,348.9c0-29.3,0-29.3,0-29.3c8.1,0,8.1,0,8.1,0c0,29.3,0,29.3,0,29.3H556.8z M560.7,304.9c2.7,0,5.1,2.4,5.1,5.1
					c0,2.7-2.4,4.8-5.1,4.8c-2.7,0-4.8-2.1-4.8-4.8C555.9,307.3,558,304.9,560.7,304.9z"/>
				<path d="M591.1,330.9c0-3-2.1-6-6.6-6c-4.2,0-6.3,3.3-6.6,6H591.1z M598.6,340.5c-1.5,5.1-6.3,9.3-13.5,9.3
					c-8.1,0-15.3-5.7-15.3-15.5c0-9.6,7.2-15.5,14.7-15.5c9,0,14.4,5.7,14.4,15.2c0,1.2,0,2.4,0,2.4c-21,0-21,0-21,0
					c0,3.9,3.3,6.6,7.2,6.6s5.7-1.8,6.9-4.5L598.6,340.5z"/>
				<path d="M614.5,319.6c6,0,6,0,6,0c0,6.9,0,6.9,0,6.9c-6,0-6,0-6,0c0,12.6,0,12.6,0,12.6c0,2.4,1.2,3.3,3.6,3.3
					c0.9,0,2.1,0,2.4-0.3c0,6.6,0,6.6,0,6.6c-0.6,0.3-2.1,0.9-4.5,0.9c-5.7,0-9.3-3.6-9.3-9.3c0-13.7,0-13.7,0-13.7
					c-5.4,0-5.4,0-5.4,0c0-6.9,0-6.9,0-6.9c1.5,0,1.5,0,1.5,0c3,0,4.5-2.1,4.5-4.8c0-3.9,0-3.9,0-3.9c7.2,0,7.2,0,7.2,0V319.6z"/>
			</g>
		</g>
	</g>
</g>
</svg>
